<mxfile host="app.diagrams.net" agent="Mozilla/5.0 (Windows NT 10.0; Win64; x64) AppleWebKit/537.36 (KHTML, like Gecko) Chrome/129.0.0.0 Safari/537.36" version="24.7.17">
  <diagram name="Página-1" id="4iAVA3ac8XLfmWDoB-LY">
    <mxGraphModel dx="690" dy="363" grid="1" gridSize="10" guides="1" tooltips="1" connect="1" arrows="1" fold="1" page="1" pageScale="1" pageWidth="1169" pageHeight="827" math="0" shadow="0">
      <root>
        <mxCell id="0" />
        <mxCell id="1" parent="0" />
        <mxCell id="1HiiKMjsXerNrMeJCwqZ-43" value="" style="rounded=1;whiteSpace=wrap;html=1;glass=0;" parent="1" vertex="1">
          <mxGeometry x="5" y="110" width="720" height="290" as="geometry" />
        </mxCell>
        <mxCell id="1HiiKMjsXerNrMeJCwqZ-25" value="" style="edgeStyle=orthogonalEdgeStyle;rounded=0;orthogonalLoop=1;jettySize=auto;html=1;" parent="1" target="1HiiKMjsXerNrMeJCwqZ-23" edge="1">
          <mxGeometry relative="1" as="geometry">
            <mxPoint x="70" y="50" as="sourcePoint" />
          </mxGeometry>
        </mxCell>
        <mxCell id="1HiiKMjsXerNrMeJCwqZ-13" value="" style="edgeStyle=orthogonalEdgeStyle;rounded=0;orthogonalLoop=1;jettySize=auto;html=1;" parent="1" source="1HiiKMjsXerNrMeJCwqZ-2" target="1HiiKMjsXerNrMeJCwqZ-3" edge="1">
          <mxGeometry relative="1" as="geometry" />
        </mxCell>
        <mxCell id="1HiiKMjsXerNrMeJCwqZ-2" value="Compressor" style="rounded=1;whiteSpace=wrap;html=1;" parent="1" vertex="1">
          <mxGeometry x="435" y="334" width="90" height="50" as="geometry" />
        </mxCell>
        <mxCell id="1HiiKMjsXerNrMeJCwqZ-12" value="" style="edgeStyle=orthogonalEdgeStyle;rounded=0;orthogonalLoop=1;jettySize=auto;html=1;" parent="1" source="1HiiKMjsXerNrMeJCwqZ-3" target="1HiiKMjsXerNrMeJCwqZ-4" edge="1">
          <mxGeometry relative="1" as="geometry" />
        </mxCell>
        <mxCell id="1HiiKMjsXerNrMeJCwqZ-3" value="Condensador" style="rounded=1;whiteSpace=wrap;html=1;" parent="1" vertex="1">
          <mxGeometry x="314" y="334" width="90" height="50" as="geometry" />
        </mxCell>
        <mxCell id="1HiiKMjsXerNrMeJCwqZ-11" value="" style="edgeStyle=orthogonalEdgeStyle;rounded=0;orthogonalLoop=1;jettySize=auto;html=1;" parent="1" source="1HiiKMjsXerNrMeJCwqZ-4" target="1HiiKMjsXerNrMeJCwqZ-5" edge="1">
          <mxGeometry relative="1" as="geometry" />
        </mxCell>
        <mxCell id="1HiiKMjsXerNrMeJCwqZ-4" value="Filtro Seco" style="rounded=1;whiteSpace=wrap;html=1;" parent="1" vertex="1">
          <mxGeometry x="185" y="334" width="90" height="50" as="geometry" />
        </mxCell>
        <mxCell id="1HiiKMjsXerNrMeJCwqZ-22" style="edgeStyle=orthogonalEdgeStyle;rounded=0;orthogonalLoop=1;jettySize=auto;html=1;entryX=0;entryY=0.5;entryDx=0;entryDy=0;" parent="1" source="1HiiKMjsXerNrMeJCwqZ-5" target="1HiiKMjsXerNrMeJCwqZ-14" edge="1">
          <mxGeometry relative="1" as="geometry">
            <Array as="points">
              <mxPoint x="235" y="219" />
            </Array>
          </mxGeometry>
        </mxCell>
        <mxCell id="1HiiKMjsXerNrMeJCwqZ-5" value="Tubo Capilar" style="rounded=1;whiteSpace=wrap;html=1;" parent="1" vertex="1">
          <mxGeometry x="185" y="244" width="90" height="50" as="geometry" />
        </mxCell>
        <mxCell id="1HiiKMjsXerNrMeJCwqZ-39" style="edgeStyle=orthogonalEdgeStyle;rounded=0;orthogonalLoop=1;jettySize=auto;html=1;entryX=1;entryY=0.75;entryDx=0;entryDy=0;exitX=0.5;exitY=1;exitDx=0;exitDy=0;" parent="1" source="1HiiKMjsXerNrMeJCwqZ-8" edge="1">
          <mxGeometry relative="1" as="geometry">
            <mxPoint x="423" y="252.5" as="targetPoint" />
            <mxPoint x="660" y="240" as="sourcePoint" />
            <Array as="points">
              <mxPoint x="660" y="253" />
              <mxPoint x="435" y="253" />
            </Array>
          </mxGeometry>
        </mxCell>
        <mxCell id="1HiiKMjsXerNrMeJCwqZ-8" value="Check Valve" style="rounded=1;whiteSpace=wrap;html=1;" parent="1" vertex="1">
          <mxGeometry x="615" y="194" width="90" height="50" as="geometry" />
        </mxCell>
        <mxCell id="1HiiKMjsXerNrMeJCwqZ-18" value="" style="group" parent="1" vertex="1" connectable="0">
          <mxGeometry x="295" y="134" width="128" height="170" as="geometry" />
        </mxCell>
        <mxCell id="1HiiKMjsXerNrMeJCwqZ-14" value="&lt;p&gt;&lt;/p&gt;&lt;p style=&quot;padding-right: 0px; margin-top: 12px;&quot;&gt;&lt;br&gt;&lt;/p&gt;&lt;p&gt;&lt;/p&gt;" style="rounded=0;whiteSpace=wrap;html=1;fillStyle=auto;gradientColor=none;fillColor=default;glass=0;" parent="1HiiKMjsXerNrMeJCwqZ-18" vertex="1">
          <mxGeometry width="128" height="170" as="geometry" />
        </mxCell>
        <mxCell id="1HiiKMjsXerNrMeJCwqZ-6" value="Evaporador" style="rounded=1;whiteSpace=wrap;html=1;" parent="1HiiKMjsXerNrMeJCwqZ-18" vertex="1">
          <mxGeometry x="18" y="50" width="90" height="50" as="geometry" />
        </mxCell>
        <mxCell id="1HiiKMjsXerNrMeJCwqZ-7" value="Sensor de temperatura" style="rounded=1;whiteSpace=wrap;html=1;" parent="1HiiKMjsXerNrMeJCwqZ-18" vertex="1">
          <mxGeometry x="18" y="110" width="90" height="50" as="geometry" />
        </mxCell>
        <mxCell id="1HiiKMjsXerNrMeJCwqZ-17" value="Tanque de água" style="rounded=0;whiteSpace=wrap;html=1;" parent="1HiiKMjsXerNrMeJCwqZ-18" vertex="1">
          <mxGeometry width="128" height="40" as="geometry" />
        </mxCell>
        <mxCell id="1HiiKMjsXerNrMeJCwqZ-26" value="" style="edgeStyle=orthogonalEdgeStyle;rounded=0;orthogonalLoop=1;jettySize=auto;html=1;" parent="1" source="1HiiKMjsXerNrMeJCwqZ-23" target="1HiiKMjsXerNrMeJCwqZ-24" edge="1">
          <mxGeometry relative="1" as="geometry" />
        </mxCell>
        <mxCell id="1HiiKMjsXerNrMeJCwqZ-23" value="Redutor de pressão" style="rounded=1;whiteSpace=wrap;html=1;" parent="1" vertex="1">
          <mxGeometry x="25" y="129" width="90" height="50" as="geometry" />
        </mxCell>
        <mxCell id="1HiiKMjsXerNrMeJCwqZ-30" style="edgeStyle=orthogonalEdgeStyle;rounded=0;orthogonalLoop=1;jettySize=auto;html=1;entryX=0;entryY=0.5;entryDx=0;entryDy=0;" parent="1" source="1HiiKMjsXerNrMeJCwqZ-24" target="1HiiKMjsXerNrMeJCwqZ-17" edge="1">
          <mxGeometry relative="1" as="geometry" />
        </mxCell>
        <mxCell id="1HiiKMjsXerNrMeJCwqZ-24" value="Válvula de entrada" style="rounded=1;whiteSpace=wrap;html=1;" parent="1" vertex="1">
          <mxGeometry x="155" y="129" width="90" height="50" as="geometry" />
        </mxCell>
        <mxCell id="1HiiKMjsXerNrMeJCwqZ-32" style="edgeStyle=orthogonalEdgeStyle;rounded=0;orthogonalLoop=1;jettySize=auto;html=1;entryX=0.5;entryY=0;entryDx=0;entryDy=0;" parent="1" source="1HiiKMjsXerNrMeJCwqZ-14" target="1HiiKMjsXerNrMeJCwqZ-2" edge="1">
          <mxGeometry relative="1" as="geometry">
            <Array as="points">
              <mxPoint x="480" y="280" />
            </Array>
          </mxGeometry>
        </mxCell>
        <mxCell id="1HiiKMjsXerNrMeJCwqZ-37" value="" style="edgeStyle=orthogonalEdgeStyle;rounded=0;orthogonalLoop=1;jettySize=auto;html=1;" parent="1" source="1HiiKMjsXerNrMeJCwqZ-33" target="1HiiKMjsXerNrMeJCwqZ-8" edge="1">
          <mxGeometry relative="1" as="geometry" />
        </mxCell>
        <mxCell id="1HiiKMjsXerNrMeJCwqZ-33" value="Bomba de diafragma" style="rounded=1;whiteSpace=wrap;html=1;" parent="1" vertex="1">
          <mxGeometry x="475" y="194" width="90" height="50" as="geometry" />
        </mxCell>
        <mxCell id="1HiiKMjsXerNrMeJCwqZ-46" value="" style="edgeStyle=orthogonalEdgeStyle;rounded=0;orthogonalLoop=1;jettySize=auto;html=1;" parent="1" source="1HiiKMjsXerNrMeJCwqZ-34" edge="1">
          <mxGeometry relative="1" as="geometry">
            <mxPoint x="660" y="50" as="targetPoint" />
          </mxGeometry>
        </mxCell>
        <mxCell id="1HiiKMjsXerNrMeJCwqZ-34" value="Válvula de&amp;nbsp; água gelada" style="rounded=1;whiteSpace=wrap;html=1;" parent="1" vertex="1">
          <mxGeometry x="615" y="129" width="90" height="50" as="geometry" />
        </mxCell>
        <mxCell id="1HiiKMjsXerNrMeJCwqZ-41" value="" style="edgeStyle=orthogonalEdgeStyle;rounded=0;orthogonalLoop=1;jettySize=auto;html=1;" parent="1" source="1HiiKMjsXerNrMeJCwqZ-35" target="1HiiKMjsXerNrMeJCwqZ-34" edge="1">
          <mxGeometry relative="1" as="geometry" />
        </mxCell>
        <mxCell id="1HiiKMjsXerNrMeJCwqZ-35" value="Check Valve" style="rounded=1;whiteSpace=wrap;html=1;" parent="1" vertex="1">
          <mxGeometry x="475" y="129" width="90" height="50" as="geometry" />
        </mxCell>
        <mxCell id="1HiiKMjsXerNrMeJCwqZ-36" style="edgeStyle=orthogonalEdgeStyle;rounded=0;orthogonalLoop=1;jettySize=auto;html=1;entryX=0;entryY=0.5;entryDx=0;entryDy=0;" parent="1" source="1HiiKMjsXerNrMeJCwqZ-17" target="1HiiKMjsXerNrMeJCwqZ-33" edge="1">
          <mxGeometry relative="1" as="geometry">
            <Array as="points" />
          </mxGeometry>
        </mxCell>
        <mxCell id="1HiiKMjsXerNrMeJCwqZ-40" style="edgeStyle=orthogonalEdgeStyle;rounded=0;orthogonalLoop=1;jettySize=auto;html=1;entryX=0;entryY=0.5;entryDx=0;entryDy=0;" parent="1" source="1HiiKMjsXerNrMeJCwqZ-17" target="1HiiKMjsXerNrMeJCwqZ-35" edge="1">
          <mxGeometry relative="1" as="geometry" />
        </mxCell>
        <mxCell id="1HiiKMjsXerNrMeJCwqZ-47" value="Entrada de água" style="text;html=1;align=center;verticalAlign=middle;whiteSpace=wrap;rounded=0;" parent="1" vertex="1">
          <mxGeometry x="40" y="10" width="60" height="30" as="geometry" />
        </mxCell>
        <mxCell id="1HiiKMjsXerNrMeJCwqZ-51" value="&lt;div style=&quot;&quot;&gt;&lt;span style=&quot;text-wrap: wrap; background-color: initial;&quot;&gt;Saída água&lt;/span&gt;&lt;/div&gt;" style="text;html=1;align=center;verticalAlign=middle;resizable=0;points=[];autosize=1;strokeColor=none;fillColor=none;" parent="1" vertex="1">
          <mxGeometry x="620" y="20" width="80" height="30" as="geometry" />
        </mxCell>
        <mxCell id="4zDB5PJ4PSmxcHb5Ms9o-1" value="" style="endArrow=none;html=1;rounded=0;entryX=0;entryY=0.5;entryDx=0;entryDy=0;" parent="1" target="4zDB5PJ4PSmxcHb5Ms9o-2" edge="1">
          <mxGeometry width="50" height="50" relative="1" as="geometry">
            <mxPoint x="165" y="538" as="sourcePoint" />
            <mxPoint x="235" y="538" as="targetPoint" />
          </mxGeometry>
        </mxCell>
        <mxCell id="4zDB5PJ4PSmxcHb5Ms9o-2" value="" style="triangle;whiteSpace=wrap;html=1;" parent="1" vertex="1">
          <mxGeometry x="210" y="523" width="20" height="30" as="geometry" />
        </mxCell>
        <mxCell id="4zDB5PJ4PSmxcHb5Ms9o-3" value="" style="endArrow=none;html=1;rounded=0;exitX=1;exitY=0.5;exitDx=0;exitDy=0;" parent="1" source="4zDB5PJ4PSmxcHb5Ms9o-2" target="4zDB5PJ4PSmxcHb5Ms9o-5" edge="1">
          <mxGeometry width="50" height="50" relative="1" as="geometry">
            <mxPoint x="375" y="618" as="sourcePoint" />
            <mxPoint x="405" y="538" as="targetPoint" />
          </mxGeometry>
        </mxCell>
        <mxCell id="4zDB5PJ4PSmxcHb5Ms9o-10" value="" style="endArrow=none;html=1;rounded=0;exitX=1;exitY=0.5;exitDx=0;exitDy=0;" parent="1" source="4zDB5PJ4PSmxcHb5Ms9o-5" edge="1">
          <mxGeometry width="50" height="50" relative="1" as="geometry">
            <mxPoint x="465" y="518" as="sourcePoint" />
            <mxPoint x="375" y="538" as="targetPoint" />
          </mxGeometry>
        </mxCell>
        <mxCell id="4zDB5PJ4PSmxcHb5Ms9o-14" value="S" style="rounded=0;whiteSpace=wrap;html=1;" parent="1" vertex="1">
          <mxGeometry x="380" y="480" width="30" height="30" as="geometry" />
        </mxCell>
        <mxCell id="4zDB5PJ4PSmxcHb5Ms9o-15" style="edgeStyle=orthogonalEdgeStyle;rounded=0;orthogonalLoop=1;jettySize=auto;html=1;endArrow=none;endFill=0;entryX=0.5;entryY=1;entryDx=0;entryDy=0;exitX=1;exitY=0.5;exitDx=0;exitDy=0;" parent="1" source="4zDB5PJ4PSmxcHb5Ms9o-19" target="4zDB5PJ4PSmxcHb5Ms9o-14" edge="1">
          <mxGeometry relative="1" as="geometry">
            <mxPoint x="395" y="518" as="sourcePoint" />
            <mxPoint x="534" y="509" as="targetPoint" />
            <Array as="points">
              <mxPoint x="395" y="528" />
              <mxPoint x="395" y="528" />
            </Array>
          </mxGeometry>
        </mxCell>
        <mxCell id="4zDB5PJ4PSmxcHb5Ms9o-18" value="" style="triangle;whiteSpace=wrap;html=1;" parent="1" vertex="1">
          <mxGeometry x="375" y="523" width="20" height="30" as="geometry" />
        </mxCell>
        <mxCell id="4zDB5PJ4PSmxcHb5Ms9o-19" value="" style="triangle;whiteSpace=wrap;html=1;rotation=-180;" parent="1" vertex="1">
          <mxGeometry x="395" y="523" width="20" height="30" as="geometry" />
        </mxCell>
        <mxCell id="4zDB5PJ4PSmxcHb5Ms9o-20" value="" style="group" parent="1" vertex="1" connectable="0">
          <mxGeometry x="275" y="508" width="37.5" height="60" as="geometry" />
        </mxCell>
        <mxCell id="4zDB5PJ4PSmxcHb5Ms9o-5" value="" style="ellipse;whiteSpace=wrap;html=1;aspect=fixed;" parent="4zDB5PJ4PSmxcHb5Ms9o-20" vertex="1">
          <mxGeometry y="11.25" width="37.5" height="37.5" as="geometry" />
        </mxCell>
        <mxCell id="4zDB5PJ4PSmxcHb5Ms9o-16" value="" style="verticalLabelPosition=bottom;verticalAlign=top;html=1;shape=mxgraph.basic.arc;startAngle=0.3686371943260041;endAngle=0.6340846886755098;rotation=-180;" parent="4zDB5PJ4PSmxcHb5Ms9o-20" vertex="1">
          <mxGeometry x="1.25" y="40" width="35" height="20" as="geometry" />
        </mxCell>
        <mxCell id="4zDB5PJ4PSmxcHb5Ms9o-17" value="" style="verticalLabelPosition=bottom;verticalAlign=top;html=1;shape=mxgraph.basic.arc;startAngle=0.3686371943260041;endAngle=0.6340846886755098;rotation=0;" parent="4zDB5PJ4PSmxcHb5Ms9o-20" vertex="1">
          <mxGeometry x="1.25" width="35" height="20" as="geometry" />
        </mxCell>
        <mxCell id="4zDB5PJ4PSmxcHb5Ms9o-21" value="" style="endArrow=none;html=1;rounded=0;exitX=0;exitY=0.5;exitDx=0;exitDy=0;" parent="1" source="4zDB5PJ4PSmxcHb5Ms9o-19" edge="1">
          <mxGeometry width="50" height="50" relative="1" as="geometry">
            <mxPoint x="445" y="528" as="sourcePoint" />
            <mxPoint x="445" y="538" as="targetPoint" />
          </mxGeometry>
        </mxCell>
        <mxCell id="4zDB5PJ4PSmxcHb5Ms9o-23" value="" style="endArrow=none;html=1;rounded=0;" parent="1" edge="1">
          <mxGeometry width="50" height="50" relative="1" as="geometry">
            <mxPoint x="625" y="540" as="sourcePoint" />
            <mxPoint x="685" y="540" as="targetPoint" />
          </mxGeometry>
        </mxCell>
        <mxCell id="4zDB5PJ4PSmxcHb5Ms9o-25" value="" style="endArrow=none;html=1;rounded=0;" parent="1" edge="1">
          <mxGeometry width="50" height="50" relative="1" as="geometry">
            <mxPoint x="545" y="538" as="sourcePoint" />
            <mxPoint x="585" y="628" as="targetPoint" />
          </mxGeometry>
        </mxCell>
        <mxCell id="4zDB5PJ4PSmxcHb5Ms9o-26" value="Válvula de segurança" style="text;html=1;align=center;verticalAlign=middle;resizable=0;points=[];autosize=1;strokeColor=none;fillColor=none;" parent="1" vertex="1">
          <mxGeometry x="750" y="658" width="140" height="30" as="geometry" />
        </mxCell>
        <mxCell id="4zDB5PJ4PSmxcHb5Ms9o-27" value="S" style="rounded=0;whiteSpace=wrap;html=1;" parent="1" vertex="1">
          <mxGeometry x="690" y="480" width="30" height="30" as="geometry" />
        </mxCell>
        <mxCell id="4zDB5PJ4PSmxcHb5Ms9o-28" style="edgeStyle=orthogonalEdgeStyle;rounded=0;orthogonalLoop=1;jettySize=auto;html=1;endArrow=none;endFill=0;entryX=0.5;entryY=1;entryDx=0;entryDy=0;exitX=1;exitY=0.5;exitDx=0;exitDy=0;" parent="1" source="4zDB5PJ4PSmxcHb5Ms9o-30" target="4zDB5PJ4PSmxcHb5Ms9o-27" edge="1">
          <mxGeometry relative="1" as="geometry">
            <mxPoint x="705" y="518" as="sourcePoint" />
            <mxPoint x="844" y="509" as="targetPoint" />
            <Array as="points">
              <mxPoint x="705" y="528" />
              <mxPoint x="705" y="528" />
            </Array>
          </mxGeometry>
        </mxCell>
        <mxCell id="4zDB5PJ4PSmxcHb5Ms9o-29" value="" style="triangle;whiteSpace=wrap;html=1;" parent="1" vertex="1">
          <mxGeometry x="685" y="523" width="20" height="30" as="geometry" />
        </mxCell>
        <mxCell id="4zDB5PJ4PSmxcHb5Ms9o-30" value="" style="triangle;whiteSpace=wrap;html=1;rotation=-180;" parent="1" vertex="1">
          <mxGeometry x="705" y="523" width="20" height="30" as="geometry" />
        </mxCell>
        <mxCell id="4zDB5PJ4PSmxcHb5Ms9o-32" value="" style="endArrow=none;html=1;rounded=0;" parent="1" edge="1">
          <mxGeometry width="50" height="50" relative="1" as="geometry">
            <mxPoint x="625" y="558" as="sourcePoint" />
            <mxPoint x="625" y="523" as="targetPoint" />
          </mxGeometry>
        </mxCell>
        <mxCell id="4zDB5PJ4PSmxcHb5Ms9o-33" value="" style="endArrow=none;html=1;rounded=0;" parent="1" edge="1">
          <mxGeometry width="50" height="50" relative="1" as="geometry">
            <mxPoint x="585" y="558" as="sourcePoint" />
            <mxPoint x="585" y="523" as="targetPoint" />
          </mxGeometry>
        </mxCell>
        <mxCell id="4zDB5PJ4PSmxcHb5Ms9o-34" value="" style="endArrow=classic;html=1;rounded=0;" parent="1" edge="1">
          <mxGeometry width="50" height="50" relative="1" as="geometry">
            <mxPoint x="625" y="555" as="sourcePoint" />
            <mxPoint x="585" y="525" as="targetPoint" />
          </mxGeometry>
        </mxCell>
        <mxCell id="4zDB5PJ4PSmxcHb5Ms9o-35" value="" style="endArrow=none;html=1;rounded=0;" parent="1" edge="1">
          <mxGeometry width="50" height="50" relative="1" as="geometry">
            <mxPoint x="535" y="538" as="sourcePoint" />
            <mxPoint x="585" y="537.74" as="targetPoint" />
          </mxGeometry>
        </mxCell>
        <mxCell id="4zDB5PJ4PSmxcHb5Ms9o-36" value="Saída de água gelada" style="text;html=1;align=center;verticalAlign=middle;resizable=0;points=[];autosize=1;strokeColor=none;fillColor=none;" parent="1" vertex="1">
          <mxGeometry x="725" y="523" width="140" height="30" as="geometry" />
        </mxCell>
        <mxCell id="4zDB5PJ4PSmxcHb5Ms9o-37" value="" style="endArrow=none;html=1;rounded=0;entryX=0;entryY=0.5;entryDx=0;entryDy=0;" parent="1" target="4zDB5PJ4PSmxcHb5Ms9o-47" edge="1">
          <mxGeometry width="50" height="50" relative="1" as="geometry">
            <mxPoint x="585" y="598" as="sourcePoint" />
            <mxPoint x="635" y="598" as="targetPoint" />
          </mxGeometry>
        </mxCell>
        <mxCell id="4zDB5PJ4PSmxcHb5Ms9o-47" value="" style="triangle;whiteSpace=wrap;html=1;" parent="1" vertex="1">
          <mxGeometry x="685" y="583" width="20" height="30" as="geometry" />
        </mxCell>
        <mxCell id="4zDB5PJ4PSmxcHb5Ms9o-48" value="" style="triangle;whiteSpace=wrap;html=1;rotation=-180;" parent="1" vertex="1">
          <mxGeometry x="705" y="583" width="20" height="30" as="geometry" />
        </mxCell>
        <mxCell id="4zDB5PJ4PSmxcHb5Ms9o-49" value="Dreno" style="text;html=1;align=center;verticalAlign=middle;resizable=0;points=[];autosize=1;strokeColor=none;fillColor=none;" parent="1" vertex="1">
          <mxGeometry x="800" y="583" width="60" height="30" as="geometry" />
        </mxCell>
        <mxCell id="4zDB5PJ4PSmxcHb5Ms9o-50" value="" style="endArrow=none;html=1;rounded=0;" parent="1" edge="1">
          <mxGeometry width="50" height="50" relative="1" as="geometry">
            <mxPoint x="725" y="597.8" as="sourcePoint" />
            <mxPoint x="785" y="597.8" as="targetPoint" />
          </mxGeometry>
        </mxCell>
        <mxCell id="4zDB5PJ4PSmxcHb5Ms9o-52" value="&lt;b&gt;Entrada água da rede&lt;br&gt;&lt;/b&gt;&amp;nbsp;Mains Water Inlet" style="text;html=1;align=center;verticalAlign=middle;resizable=0;points=[];autosize=1;strokeColor=none;fillColor=none;" parent="1" vertex="1">
          <mxGeometry x="25" y="518" width="150" height="40" as="geometry" />
        </mxCell>
        <mxCell id="4zDB5PJ4PSmxcHb5Ms9o-61" value="" style="group" parent="1" vertex="1" connectable="0">
          <mxGeometry x="525" y="678" width="50" height="50" as="geometry" />
        </mxCell>
        <mxCell id="4zDB5PJ4PSmxcHb5Ms9o-53" value="" style="ellipse;whiteSpace=wrap;html=1;aspect=fixed;" parent="4zDB5PJ4PSmxcHb5Ms9o-61" vertex="1">
          <mxGeometry width="50" height="50" as="geometry" />
        </mxCell>
        <mxCell id="4zDB5PJ4PSmxcHb5Ms9o-59" value="" style="endArrow=none;html=1;rounded=0;exitX=0;exitY=1;exitDx=0;exitDy=0;entryX=0.969;entryY=0.671;entryDx=0;entryDy=0;entryPerimeter=0;" parent="4zDB5PJ4PSmxcHb5Ms9o-61" source="4zDB5PJ4PSmxcHb5Ms9o-53" target="4zDB5PJ4PSmxcHb5Ms9o-53" edge="1">
          <mxGeometry width="50" height="50" relative="1" as="geometry">
            <mxPoint x="-20" y="50" as="sourcePoint" />
            <mxPoint x="30" as="targetPoint" />
          </mxGeometry>
        </mxCell>
        <mxCell id="4zDB5PJ4PSmxcHb5Ms9o-60" value="" style="endArrow=none;html=1;rounded=0;exitX=0;exitY=0;exitDx=0;exitDy=0;entryX=0.962;entryY=0.316;entryDx=0;entryDy=0;entryPerimeter=0;" parent="4zDB5PJ4PSmxcHb5Ms9o-61" source="4zDB5PJ4PSmxcHb5Ms9o-53" target="4zDB5PJ4PSmxcHb5Ms9o-53" edge="1">
          <mxGeometry width="50" height="50" relative="1" as="geometry">
            <mxPoint x="-20" y="50" as="sourcePoint" />
            <mxPoint x="30" as="targetPoint" />
          </mxGeometry>
        </mxCell>
        <mxCell id="4zDB5PJ4PSmxcHb5Ms9o-62" value="" style="rounded=0;whiteSpace=wrap;html=1;" parent="1" vertex="1">
          <mxGeometry x="444" y="714" width="65.5" height="44" as="geometry" />
        </mxCell>
        <mxCell id="4zDB5PJ4PSmxcHb5Ms9o-79" value="" style="verticalLabelPosition=bottom;verticalAlign=top;html=1;shape=mxgraph.basic.arc;startAngle=0.7736965711387448;endAngle=0.23488796658054026;rotation=-180;strokeWidth=2;fillColor=#e51400;fontColor=#ffffff;strokeColor=#B20000;" parent="1" vertex="1">
          <mxGeometry x="471.75" y="743" width="10" height="10" as="geometry" />
        </mxCell>
        <mxCell id="4zDB5PJ4PSmxcHb5Ms9o-66" value="" style="endArrow=none;html=1;rounded=0;strokeWidth=2;fillColor=#e51400;strokeColor=#B20000;" parent="1" edge="1">
          <mxGeometry width="50" height="50" relative="1" as="geometry">
            <mxPoint x="471.75" y="749" as="sourcePoint" />
            <mxPoint x="471.75" y="723" as="targetPoint" />
          </mxGeometry>
        </mxCell>
        <mxCell id="4zDB5PJ4PSmxcHb5Ms9o-67" value="" style="verticalLabelPosition=bottom;verticalAlign=top;html=1;shape=mxgraph.basic.arc;startAngle=0.7736965711387448;endAngle=0.23488796658054026;container=0;strokeWidth=2;fillColor=#e51400;fontColor=#ffffff;strokeColor=#B20000;" parent="1" vertex="1">
          <mxGeometry x="461.75" y="719" width="10" height="10" as="geometry" />
        </mxCell>
        <mxCell id="4zDB5PJ4PSmxcHb5Ms9o-80" value="" style="endArrow=none;html=1;rounded=0;strokeWidth=2;fillColor=#e51400;strokeColor=#B20000;" parent="1" edge="1">
          <mxGeometry width="50" height="50" relative="1" as="geometry">
            <mxPoint x="481.59" y="749" as="sourcePoint" />
            <mxPoint x="481.59" y="723" as="targetPoint" />
          </mxGeometry>
        </mxCell>
        <mxCell id="4zDB5PJ4PSmxcHb5Ms9o-82" value="" style="verticalLabelPosition=bottom;verticalAlign=top;html=1;shape=mxgraph.basic.arc;startAngle=0.7736965711387448;endAngle=0.23488796658054026;rotation=-180;strokeWidth=2;fillColor=#e51400;fontColor=#ffffff;strokeColor=#B20000;" parent="1" vertex="1">
          <mxGeometry x="491.75" y="743" width="10" height="10" as="geometry" />
        </mxCell>
        <mxCell id="4zDB5PJ4PSmxcHb5Ms9o-83" value="" style="endArrow=none;html=1;rounded=0;strokeWidth=2;fillColor=#e51400;strokeColor=#B20000;" parent="1" edge="1">
          <mxGeometry width="50" height="50" relative="1" as="geometry">
            <mxPoint x="491.75" y="749" as="sourcePoint" />
            <mxPoint x="491.75" y="723" as="targetPoint" />
          </mxGeometry>
        </mxCell>
        <mxCell id="4zDB5PJ4PSmxcHb5Ms9o-84" value="" style="verticalLabelPosition=bottom;verticalAlign=top;html=1;shape=mxgraph.basic.arc;startAngle=0.7736965711387448;endAngle=0.23488796658054026;container=0;strokeWidth=2;fillColor=#e51400;fontColor=#ffffff;strokeColor=#B20000;" parent="1" vertex="1">
          <mxGeometry x="481.75" y="719" width="10" height="10" as="geometry" />
        </mxCell>
        <mxCell id="4zDB5PJ4PSmxcHb5Ms9o-85" value="" style="endArrow=none;html=1;rounded=0;strokeWidth=2;fillColor=#e51400;strokeColor=#B20000;" parent="1" edge="1">
          <mxGeometry width="50" height="50" relative="1" as="geometry">
            <mxPoint x="501.59" y="749" as="sourcePoint" />
            <mxPoint x="501.59" y="723" as="targetPoint" />
          </mxGeometry>
        </mxCell>
        <mxCell id="4zDB5PJ4PSmxcHb5Ms9o-86" value="" style="verticalLabelPosition=bottom;verticalAlign=top;html=1;shape=mxgraph.basic.arc;startAngle=0.7736965711387448;endAngle=0.23488796658054026;rotation=-180;strokeWidth=2;fillColor=#e51400;fontColor=#ffffff;strokeColor=#B20000;" parent="1" vertex="1">
          <mxGeometry x="451.75" y="743" width="10" height="10" as="geometry" />
        </mxCell>
        <mxCell id="4zDB5PJ4PSmxcHb5Ms9o-87" value="" style="endArrow=none;html=1;rounded=0;strokeWidth=2;fillColor=#e51400;strokeColor=#B20000;" parent="1" edge="1">
          <mxGeometry width="50" height="50" relative="1" as="geometry">
            <mxPoint x="451.59" y="749" as="sourcePoint" />
            <mxPoint x="451.59" y="723" as="targetPoint" />
          </mxGeometry>
        </mxCell>
        <mxCell id="4zDB5PJ4PSmxcHb5Ms9o-88" value="" style="endArrow=none;html=1;rounded=0;strokeWidth=2;fillColor=#e51400;strokeColor=#B20000;" parent="1" edge="1">
          <mxGeometry width="50" height="50" relative="1" as="geometry">
            <mxPoint x="461.75" y="749" as="sourcePoint" />
            <mxPoint x="461.75" y="723" as="targetPoint" />
          </mxGeometry>
        </mxCell>
        <mxCell id="4zDB5PJ4PSmxcHb5Ms9o-89" value="" style="rounded=0;whiteSpace=wrap;html=1;" parent="1" vertex="1">
          <mxGeometry x="370" y="696" width="30" height="18" as="geometry" />
        </mxCell>
        <mxCell id="4zDB5PJ4PSmxcHb5Ms9o-133" value="" style="group" parent="1" vertex="1" connectable="0">
          <mxGeometry x="370" y="696" width="12" height="18" as="geometry" />
        </mxCell>
        <mxCell id="4zDB5PJ4PSmxcHb5Ms9o-110" value="" style="ellipse;whiteSpace=wrap;html=1;aspect=fixed;container=0;" parent="4zDB5PJ4PSmxcHb5Ms9o-133" vertex="1">
          <mxGeometry x="3" y="12.5" width="3" height="3" as="geometry" />
        </mxCell>
        <mxCell id="4zDB5PJ4PSmxcHb5Ms9o-116" style="edgeStyle=orthogonalEdgeStyle;rounded=0;orthogonalLoop=1;jettySize=auto;html=1;exitX=0;exitY=1;exitDx=0;exitDy=0;" parent="4zDB5PJ4PSmxcHb5Ms9o-133" source="4zDB5PJ4PSmxcHb5Ms9o-111" edge="1">
          <mxGeometry relative="1" as="geometry">
            <mxPoint x="3.42635658914719" y="2.503875968992247" as="targetPoint" />
          </mxGeometry>
        </mxCell>
        <mxCell id="4zDB5PJ4PSmxcHb5Ms9o-111" value="" style="ellipse;whiteSpace=wrap;html=1;aspect=fixed;container=0;" parent="4zDB5PJ4PSmxcHb5Ms9o-133" vertex="1">
          <mxGeometry x="3" width="3" height="3" as="geometry" />
        </mxCell>
        <mxCell id="4zDB5PJ4PSmxcHb5Ms9o-112" value="" style="ellipse;whiteSpace=wrap;html=1;aspect=fixed;container=0;" parent="4zDB5PJ4PSmxcHb5Ms9o-133" vertex="1">
          <mxGeometry x="3" y="3" width="3" height="3" as="geometry" />
        </mxCell>
        <mxCell id="4zDB5PJ4PSmxcHb5Ms9o-113" value="" style="ellipse;whiteSpace=wrap;html=1;aspect=fixed;container=0;" parent="4zDB5PJ4PSmxcHb5Ms9o-133" vertex="1">
          <mxGeometry x="3" y="6.5" width="3" height="3" as="geometry" />
        </mxCell>
        <mxCell id="4zDB5PJ4PSmxcHb5Ms9o-114" value="" style="ellipse;whiteSpace=wrap;html=1;aspect=fixed;container=0;" parent="4zDB5PJ4PSmxcHb5Ms9o-133" vertex="1">
          <mxGeometry x="3" y="9.5" width="3" height="3" as="geometry" />
        </mxCell>
        <mxCell id="4zDB5PJ4PSmxcHb5Ms9o-115" value="" style="ellipse;whiteSpace=wrap;html=1;aspect=fixed;container=0;" parent="4zDB5PJ4PSmxcHb5Ms9o-133" vertex="1">
          <mxGeometry x="3" y="15" width="3" height="3" as="geometry" />
        </mxCell>
        <mxCell id="4zDB5PJ4PSmxcHb5Ms9o-118" value="" style="ellipse;whiteSpace=wrap;html=1;aspect=fixed;container=0;" parent="4zDB5PJ4PSmxcHb5Ms9o-133" vertex="1">
          <mxGeometry x="6" y="12.5" width="3" height="3" as="geometry" />
        </mxCell>
        <mxCell id="4zDB5PJ4PSmxcHb5Ms9o-119" value="" style="ellipse;whiteSpace=wrap;html=1;aspect=fixed;container=0;" parent="4zDB5PJ4PSmxcHb5Ms9o-133" vertex="1">
          <mxGeometry x="6" width="3" height="3" as="geometry" />
        </mxCell>
        <mxCell id="4zDB5PJ4PSmxcHb5Ms9o-120" value="" style="ellipse;whiteSpace=wrap;html=1;aspect=fixed;container=0;" parent="4zDB5PJ4PSmxcHb5Ms9o-133" vertex="1">
          <mxGeometry x="6" y="3" width="3" height="3" as="geometry" />
        </mxCell>
        <mxCell id="4zDB5PJ4PSmxcHb5Ms9o-121" value="" style="ellipse;whiteSpace=wrap;html=1;aspect=fixed;container=0;" parent="4zDB5PJ4PSmxcHb5Ms9o-133" vertex="1">
          <mxGeometry x="6" y="6.5" width="3" height="3" as="geometry" />
        </mxCell>
        <mxCell id="4zDB5PJ4PSmxcHb5Ms9o-122" value="" style="ellipse;whiteSpace=wrap;html=1;aspect=fixed;container=0;" parent="4zDB5PJ4PSmxcHb5Ms9o-133" vertex="1">
          <mxGeometry x="6" y="9.5" width="3" height="3" as="geometry" />
        </mxCell>
        <mxCell id="4zDB5PJ4PSmxcHb5Ms9o-123" value="" style="ellipse;whiteSpace=wrap;html=1;aspect=fixed;container=0;" parent="4zDB5PJ4PSmxcHb5Ms9o-133" vertex="1">
          <mxGeometry x="6" y="15" width="3" height="3" as="geometry" />
        </mxCell>
        <mxCell id="4zDB5PJ4PSmxcHb5Ms9o-125" value="" style="ellipse;whiteSpace=wrap;html=1;aspect=fixed;container=0;" parent="4zDB5PJ4PSmxcHb5Ms9o-133" vertex="1">
          <mxGeometry x="9" y="12.5" width="3" height="3" as="geometry" />
        </mxCell>
        <mxCell id="4zDB5PJ4PSmxcHb5Ms9o-126" style="edgeStyle=orthogonalEdgeStyle;rounded=0;orthogonalLoop=1;jettySize=auto;html=1;exitX=0;exitY=1;exitDx=0;exitDy=0;" parent="4zDB5PJ4PSmxcHb5Ms9o-133" source="4zDB5PJ4PSmxcHb5Ms9o-127" edge="1">
          <mxGeometry relative="1" as="geometry">
            <mxPoint x="9.42635658914719" y="2.503875968992247" as="targetPoint" />
          </mxGeometry>
        </mxCell>
        <mxCell id="4zDB5PJ4PSmxcHb5Ms9o-127" value="" style="ellipse;whiteSpace=wrap;html=1;aspect=fixed;container=0;" parent="4zDB5PJ4PSmxcHb5Ms9o-133" vertex="1">
          <mxGeometry x="9" width="3" height="3" as="geometry" />
        </mxCell>
        <mxCell id="4zDB5PJ4PSmxcHb5Ms9o-128" value="" style="ellipse;whiteSpace=wrap;html=1;aspect=fixed;container=0;" parent="4zDB5PJ4PSmxcHb5Ms9o-133" vertex="1">
          <mxGeometry x="9" y="3" width="3" height="3" as="geometry" />
        </mxCell>
        <mxCell id="4zDB5PJ4PSmxcHb5Ms9o-129" value="" style="ellipse;whiteSpace=wrap;html=1;aspect=fixed;container=0;" parent="4zDB5PJ4PSmxcHb5Ms9o-133" vertex="1">
          <mxGeometry x="9" y="6.5" width="3" height="3" as="geometry" />
        </mxCell>
        <mxCell id="4zDB5PJ4PSmxcHb5Ms9o-130" value="" style="ellipse;whiteSpace=wrap;html=1;aspect=fixed;container=0;" parent="4zDB5PJ4PSmxcHb5Ms9o-133" vertex="1">
          <mxGeometry x="9" y="9.5" width="3" height="3" as="geometry" />
        </mxCell>
        <mxCell id="4zDB5PJ4PSmxcHb5Ms9o-131" value="" style="ellipse;whiteSpace=wrap;html=1;aspect=fixed;container=0;" parent="4zDB5PJ4PSmxcHb5Ms9o-133" vertex="1">
          <mxGeometry x="9" y="15" width="3" height="3" as="geometry" />
        </mxCell>
        <mxCell id="4zDB5PJ4PSmxcHb5Ms9o-90" value="" style="ellipse;whiteSpace=wrap;html=1;aspect=fixed;container=0;" parent="4zDB5PJ4PSmxcHb5Ms9o-133" vertex="1">
          <mxGeometry y="12.5" width="3" height="3" as="geometry" />
        </mxCell>
        <mxCell id="4zDB5PJ4PSmxcHb5Ms9o-91" value="" style="ellipse;whiteSpace=wrap;html=1;aspect=fixed;container=0;" parent="4zDB5PJ4PSmxcHb5Ms9o-133" vertex="1">
          <mxGeometry width="3" height="3" as="geometry" />
        </mxCell>
        <mxCell id="4zDB5PJ4PSmxcHb5Ms9o-92" value="" style="ellipse;whiteSpace=wrap;html=1;aspect=fixed;container=0;" parent="4zDB5PJ4PSmxcHb5Ms9o-133" vertex="1">
          <mxGeometry y="3" width="3" height="3" as="geometry" />
        </mxCell>
        <mxCell id="4zDB5PJ4PSmxcHb5Ms9o-93" value="" style="ellipse;whiteSpace=wrap;html=1;aspect=fixed;container=0;" parent="4zDB5PJ4PSmxcHb5Ms9o-133" vertex="1">
          <mxGeometry y="6.5" width="3" height="3" as="geometry" />
        </mxCell>
        <mxCell id="4zDB5PJ4PSmxcHb5Ms9o-94" value="" style="ellipse;whiteSpace=wrap;html=1;aspect=fixed;container=0;" parent="4zDB5PJ4PSmxcHb5Ms9o-133" vertex="1">
          <mxGeometry y="9.5" width="3" height="3" as="geometry" />
        </mxCell>
        <mxCell id="4zDB5PJ4PSmxcHb5Ms9o-95" value="" style="ellipse;whiteSpace=wrap;html=1;aspect=fixed;container=0;" parent="4zDB5PJ4PSmxcHb5Ms9o-133" vertex="1">
          <mxGeometry y="15" width="3" height="3" as="geometry" />
        </mxCell>
        <mxCell id="4zDB5PJ4PSmxcHb5Ms9o-134" value="Filtro Secador" style="text;html=1;align=center;verticalAlign=middle;resizable=0;points=[];autosize=1;strokeColor=none;fillColor=none;" parent="1" vertex="1">
          <mxGeometry x="330" y="666" width="100" height="30" as="geometry" />
        </mxCell>
        <mxCell id="4zDB5PJ4PSmxcHb5Ms9o-135" value="" style="ellipse;whiteSpace=wrap;html=1;aspect=fixed;" parent="1" vertex="1">
          <mxGeometry x="265" y="681" width="33" height="33" as="geometry" />
        </mxCell>
        <mxCell id="4zDB5PJ4PSmxcHb5Ms9o-136" value="" style="endArrow=none;html=1;rounded=0;entryX=1;entryY=0;entryDx=0;entryDy=0;exitX=0;exitY=1;exitDx=0;exitDy=0;" parent="1" source="4zDB5PJ4PSmxcHb5Ms9o-135" target="4zDB5PJ4PSmxcHb5Ms9o-135" edge="1">
          <mxGeometry width="50" height="50" relative="1" as="geometry">
            <mxPoint x="285" y="678" as="sourcePoint" />
            <mxPoint x="335" y="628" as="targetPoint" />
          </mxGeometry>
        </mxCell>
        <mxCell id="4zDB5PJ4PSmxcHb5Ms9o-137" value="" style="endArrow=none;html=1;rounded=0;exitX=0.098;exitY=0.246;exitDx=0;exitDy=0;exitPerimeter=0;entryX=1;entryY=1;entryDx=0;entryDy=0;" parent="1" edge="1">
          <mxGeometry width="50" height="50" relative="1" as="geometry">
            <mxPoint x="269.00400000000013" y="686.9979999999999" as="sourcePoint" />
            <mxPoint x="293.93726188958135" y="707.0472618895811" as="targetPoint" />
          </mxGeometry>
        </mxCell>
        <mxCell id="HVo-WMJMqaYVTNI-eBQO-3" value="" style="shape=delay;whiteSpace=wrap;html=1;rotation=90;" vertex="1" parent="1">
          <mxGeometry x="430" y="533" width="120" height="90" as="geometry" />
        </mxCell>
        <mxCell id="HVo-WMJMqaYVTNI-eBQO-48" value="" style="group" vertex="1" connectable="0" parent="1">
          <mxGeometry x="415" y="565" width="95" height="80" as="geometry" />
        </mxCell>
        <mxCell id="HVo-WMJMqaYVTNI-eBQO-21" value="" style="verticalLabelPosition=bottom;verticalAlign=top;html=1;shape=mxgraph.basic.arc;startAngle=0.7452267833287348;endAngle=0.2678299631395522;rotation=90;strokeWidth=2;fillColor=#0050ef;strokeColor=#001DBC;fontColor=#ffffff;container=0;" vertex="1" parent="HVo-WMJMqaYVTNI-eBQO-48">
          <mxGeometry x="85" width="10" height="10" as="geometry" />
        </mxCell>
        <mxCell id="HVo-WMJMqaYVTNI-eBQO-22" value="" style="endArrow=none;html=1;rounded=0;strokeWidth=2;fillColor=#0050ef;strokeColor=#001DBC;exitX=1.001;exitY=0.535;exitDx=0;exitDy=0;exitPerimeter=0;" edge="1" parent="HVo-WMJMqaYVTNI-eBQO-48" source="HVo-WMJMqaYVTNI-eBQO-21">
          <mxGeometry width="50" height="50" relative="1" as="geometry">
            <mxPoint x="89" y="12" as="sourcePoint" />
            <mxPoint x="50" y="7" as="targetPoint" />
          </mxGeometry>
        </mxCell>
        <mxCell id="HVo-WMJMqaYVTNI-eBQO-23" value="" style="verticalLabelPosition=bottom;verticalAlign=top;html=1;shape=mxgraph.basic.arc;startAngle=0.7467189196852038;endAngle=0.2613489354999302;container=0;strokeWidth=2;fillColor=#0050ef;strokeColor=#001DBC;rotation=-90;fontColor=#ffffff;" vertex="1" parent="HVo-WMJMqaYVTNI-eBQO-48">
          <mxGeometry x="45" y="7" width="10" height="10" as="geometry" />
        </mxCell>
        <mxCell id="HVo-WMJMqaYVTNI-eBQO-24" value="" style="endArrow=none;html=1;rounded=0;strokeWidth=2;fillColor=#0050ef;strokeColor=#001DBC;" edge="1" parent="HVo-WMJMqaYVTNI-eBQO-48">
          <mxGeometry width="50" height="50" relative="1" as="geometry">
            <mxPoint x="90" as="sourcePoint" />
            <mxPoint as="targetPoint" />
          </mxGeometry>
        </mxCell>
        <mxCell id="HVo-WMJMqaYVTNI-eBQO-29" value="" style="endArrow=none;html=1;rounded=0;strokeWidth=2;fillColor=#0050ef;strokeColor=#001DBC;exitX=1.001;exitY=0.535;exitDx=0;exitDy=0;exitPerimeter=0;" edge="1" parent="HVo-WMJMqaYVTNI-eBQO-48">
          <mxGeometry width="50" height="50" relative="1" as="geometry">
            <mxPoint x="90" y="20" as="sourcePoint" />
            <mxPoint x="50" y="17" as="targetPoint" />
          </mxGeometry>
        </mxCell>
        <mxCell id="HVo-WMJMqaYVTNI-eBQO-30" value="" style="verticalLabelPosition=bottom;verticalAlign=top;html=1;shape=mxgraph.basic.arc;startAngle=0.7452267833287348;endAngle=0.2678299631395522;rotation=90;strokeWidth=2;fillColor=#0050ef;strokeColor=#001DBC;fontColor=#ffffff;container=0;" vertex="1" parent="HVo-WMJMqaYVTNI-eBQO-48">
          <mxGeometry x="85" y="20" width="10" height="10" as="geometry" />
        </mxCell>
        <mxCell id="HVo-WMJMqaYVTNI-eBQO-35" value="" style="endArrow=none;html=1;rounded=0;strokeWidth=2;fillColor=#0050ef;strokeColor=#001DBC;exitX=0.008;exitY=0.419;exitDx=0;exitDy=0;exitPerimeter=0;entryX=0.007;entryY=0.504;entryDx=0;entryDy=0;entryPerimeter=0;" edge="1" parent="HVo-WMJMqaYVTNI-eBQO-48" source="HVo-WMJMqaYVTNI-eBQO-37" target="HVo-WMJMqaYVTNI-eBQO-34">
          <mxGeometry width="50" height="50" relative="1" as="geometry">
            <mxPoint x="90" y="40" as="sourcePoint" />
            <mxPoint x="50" y="40" as="targetPoint" />
          </mxGeometry>
        </mxCell>
        <mxCell id="HVo-WMJMqaYVTNI-eBQO-37" value="" style="verticalLabelPosition=bottom;verticalAlign=top;html=1;shape=mxgraph.basic.arc;startAngle=0.7702083471052479;endAngle=0.23348093596118472;rotation=90;strokeWidth=2;fillColor=#0050ef;strokeColor=#001DBC;fontColor=#ffffff;container=0;" vertex="1" parent="HVo-WMJMqaYVTNI-eBQO-48">
          <mxGeometry x="84" y="40" width="10" height="10" as="geometry" />
        </mxCell>
        <mxCell id="HVo-WMJMqaYVTNI-eBQO-40" value="" style="endArrow=none;html=1;rounded=0;strokeWidth=2;fillColor=#0050ef;strokeColor=#001DBC;exitX=0.008;exitY=0.419;exitDx=0;exitDy=0;exitPerimeter=0;entryX=0.999;entryY=0.532;entryDx=0;entryDy=0;entryPerimeter=0;" edge="1" parent="HVo-WMJMqaYVTNI-eBQO-48" target="HVo-WMJMqaYVTNI-eBQO-41">
          <mxGeometry width="50" height="50" relative="1" as="geometry">
            <mxPoint x="90" y="50" as="sourcePoint" />
            <mxPoint x="70" y="50" as="targetPoint" />
          </mxGeometry>
        </mxCell>
        <mxCell id="HVo-WMJMqaYVTNI-eBQO-41" value="" style="verticalLabelPosition=bottom;verticalAlign=top;html=1;shape=mxgraph.basic.arc;startAngle=0.7722978819734221;endAngle=0.2658627587152768;container=0;strokeWidth=2;fillColor=#0050ef;strokeColor=#001DBC;rotation=-90;fontColor=#ffffff;" vertex="1" parent="HVo-WMJMqaYVTNI-eBQO-48">
          <mxGeometry x="65" y="48" width="10" height="10" as="geometry" />
        </mxCell>
        <mxCell id="HVo-WMJMqaYVTNI-eBQO-42" value="" style="endArrow=none;html=1;rounded=0;strokeWidth=2;fillColor=#0050ef;strokeColor=#001DBC;" edge="1" parent="HVo-WMJMqaYVTNI-eBQO-48">
          <mxGeometry width="50" height="50" relative="1" as="geometry">
            <mxPoint x="90" y="60" as="sourcePoint" />
            <mxPoint x="69" y="58" as="targetPoint" />
          </mxGeometry>
        </mxCell>
        <mxCell id="HVo-WMJMqaYVTNI-eBQO-31" value="" style="endArrow=none;html=1;rounded=0;strokeWidth=2;fillColor=#0050ef;strokeColor=#001DBC;exitX=1.001;exitY=0.535;exitDx=0;exitDy=0;exitPerimeter=0;entryX=0.994;entryY=0.53;entryDx=0;entryDy=0;entryPerimeter=0;" edge="1" parent="HVo-WMJMqaYVTNI-eBQO-48" target="HVo-WMJMqaYVTNI-eBQO-34">
          <mxGeometry width="50" height="50" relative="1" as="geometry">
            <mxPoint x="90" y="30" as="sourcePoint" />
            <mxPoint x="50" y="30" as="targetPoint" />
          </mxGeometry>
        </mxCell>
        <mxCell id="HVo-WMJMqaYVTNI-eBQO-34" value="" style="verticalLabelPosition=bottom;verticalAlign=top;html=1;shape=mxgraph.basic.arc;startAngle=0.7334809359611847;endAngle=0.2874881480022106;container=0;strokeWidth=2;fillColor=#0050ef;strokeColor=#001DBC;rotation=-90;fontColor=#ffffff;" vertex="1" parent="HVo-WMJMqaYVTNI-eBQO-48">
          <mxGeometry x="45" y="26" width="10" height="10" as="geometry" />
        </mxCell>
        <mxCell id="HVo-WMJMqaYVTNI-eBQO-44" value="" style="endArrow=none;html=1;rounded=0;strokeWidth=2;fillColor=#0050ef;strokeColor=#001DBC;" edge="1" parent="HVo-WMJMqaYVTNI-eBQO-48">
          <mxGeometry width="50" height="50" relative="1" as="geometry">
            <mxPoint x="90" y="80" as="sourcePoint" />
            <mxPoint x="90" y="59" as="targetPoint" />
          </mxGeometry>
        </mxCell>
        <mxCell id="HVo-WMJMqaYVTNI-eBQO-55" value="" style="group" vertex="1" connectable="0" parent="1">
          <mxGeometry x="449.75" y="688" width="50" height="10" as="geometry" />
        </mxCell>
        <mxCell id="HVo-WMJMqaYVTNI-eBQO-49" value="" style="verticalLabelPosition=bottom;verticalAlign=top;html=1;shape=mxgraph.basic.arc;startAngle=0.4814598082024512;endAngle=0.013657127794472278;" vertex="1" parent="HVo-WMJMqaYVTNI-eBQO-55">
          <mxGeometry width="10" height="10" as="geometry" />
        </mxCell>
        <mxCell id="HVo-WMJMqaYVTNI-eBQO-52" value="" style="endArrow=none;html=1;rounded=0;" edge="1" parent="HVo-WMJMqaYVTNI-eBQO-55">
          <mxGeometry width="50" height="50" relative="1" as="geometry">
            <mxPoint x="5.25" as="sourcePoint" />
            <mxPoint x="45.25" y="10" as="targetPoint" />
          </mxGeometry>
        </mxCell>
        <mxCell id="HVo-WMJMqaYVTNI-eBQO-53" value="" style="endArrow=none;html=1;rounded=0;" edge="1" parent="HVo-WMJMqaYVTNI-eBQO-55">
          <mxGeometry width="50" height="50" relative="1" as="geometry">
            <mxPoint x="5.25" y="10" as="sourcePoint" />
            <mxPoint x="45.25" as="targetPoint" />
          </mxGeometry>
        </mxCell>
        <mxCell id="HVo-WMJMqaYVTNI-eBQO-54" value="" style="verticalLabelPosition=bottom;verticalAlign=top;html=1;shape=mxgraph.basic.arc;startAngle=0.4814598082024512;endAngle=0.013657127794472278;rotation=-180;" vertex="1" parent="HVo-WMJMqaYVTNI-eBQO-55">
          <mxGeometry x="40" width="10" height="10" as="geometry" />
        </mxCell>
        <mxCell id="HVo-WMJMqaYVTNI-eBQO-57" value="&lt;b&gt;Redutor de &lt;br&gt;pressão /&lt;br&gt;&lt;/b&gt;Pressure &lt;br&gt;reducer" style="text;html=1;align=center;verticalAlign=middle;resizable=0;points=[];autosize=1;strokeColor=none;fillColor=none;" vertex="1" parent="1">
          <mxGeometry x="170" y="453" width="90" height="70" as="geometry" />
        </mxCell>
        <mxCell id="HVo-WMJMqaYVTNI-eBQO-58" value="&lt;b&gt;Medidor &lt;br&gt;de vazão&lt;/b&gt;&lt;b&gt;&amp;nbsp;/&lt;/b&gt;&lt;br&gt;Flow &lt;br&gt;meter" style="text;html=1;align=center;verticalAlign=middle;resizable=0;points=[];autosize=1;strokeColor=none;fillColor=none;" vertex="1" parent="1">
          <mxGeometry x="253.75" y="453" width="80" height="70" as="geometry" />
        </mxCell>
        <mxCell id="HVo-WMJMqaYVTNI-eBQO-59" value="&lt;b&gt;Válvula de&amp;nbsp;&lt;br&gt;&lt;/b&gt;&lt;b&gt;retenção /&lt;/b&gt;&lt;br&gt;Check valve" style="text;html=1;align=center;verticalAlign=middle;resizable=0;points=[];autosize=1;strokeColor=none;fillColor=none;" vertex="1" parent="1">
          <mxGeometry x="565" y="450" width="90" height="60" as="geometry" />
        </mxCell>
      </root>
    </mxGraphModel>
  </diagram>
</mxfile>
